<?xml version="1.0" encoding="utf-8"?>
<!-- Generator: Adobe Illustrator 26.3.1, SVG Export Plug-In . SVG Version: 6.00 Build 0)  -->
<svg version="1.1" id="Calque_1" xmlns="http://www.w3.org/2000/svg" xmlns:xlink="http://www.w3.org/1999/xlink" x="0px" y="0px"
	 viewBox="0 0 612 792" style="enable-background:new 0 0 612 792;" xml:space="preserve">
<style type="text/css">
	.st0{fill:#00A759;}
	.st1{fill:#FFFFFF;}
	.st2{fill:none;}
</style>
<g>
	<g>
		<g>
			<g>
				<path d="M169.7,435.15c-2.16-2.49-3.23-6.35-3.23-11.58v-17.45l-3.3-0.57v-2.38h12.42v2.38l-3.95,0.62v17.93
					c0,4.31,0.75,7.42,2.26,9.32c1.5,1.9,3.67,2.85,6.49,2.85c2.82,0,4.94-1.02,6.35-3.05c1.41-2.03,2.12-4.98,2.12-8.85v-18.22
					l-3.91-0.62v-2.38h10.84v2.38l-3.39,0.57v18.03c0,4.95-1.15,8.64-3.44,11.08c-2.29,2.44-5.35,3.66-9.16,3.66
					C175.21,438.88,171.86,437.64,169.7,435.15z"/>
				<path d="M199.6,415.77l-3.42-0.86v-2.57l6.8-0.86h0.14l1,0.86v2l-0.05,1.14c1.14-1.01,2.65-1.93,4.52-2.76
					c1.87-0.82,3.66-1.24,5.37-1.24c2,0,3.54,0.38,4.64,1.14c1.09,0.76,1.86,1.93,2.31,3.5c0.44,1.57,0.67,3.69,0.67,6.35v13.32
					l3.33,0.33v2.38h-11.27v-2.33l2.95-0.38v-13.36c0-1.87-0.13-3.34-0.38-4.4c-0.25-1.06-0.73-1.85-1.43-2.38
					c-0.7-0.52-1.71-0.78-3.04-0.78c-1.14,0-2.36,0.29-3.66,0.86c-1.3,0.57-2.46,1.24-3.47,2v18.03l3.23,0.43v2.33h-11.22v-2.33
					l3-0.43V415.77z"/>
				<path d="M231.65,415.77l-3.61-0.86v-2.52l7.37-0.9h0.1l1.09,0.86v23.45l3.8,0.38v2.33h-12.6v-2.33l3.85-0.43V415.77z
					 M231.27,406.49c-0.51-0.57-0.76-1.3-0.76-2.19c0-1.02,0.31-1.86,0.93-2.52c0.62-0.67,1.47-1,2.54-1c1.08,0,1.87,0.29,2.38,0.86
					c0.51,0.57,0.76,1.3,0.76,2.19c0,1.08-0.31,1.93-0.93,2.57c-0.62,0.63-1.48,0.95-2.59,0.95h-0.05
					C232.54,407.35,231.78,407.06,231.27,406.49z"/>
				<path d="M239.66,412.1h11.03v2.24l-3.38,0.62l4.8,13.7l2,6.04l1.71-5.85l4.8-13.89l-3.23-0.62v-2.24h9.66v2.24l-2.47,0.62
					l-9.18,23.92h-4.04l-9.56-23.92l-2.14-0.62V412.1z"/>
				<path d="M269.78,435.27c-2.01-2.5-3.02-5.85-3.02-10.04c0-2.76,0.52-5.18,1.57-7.28s2.51-3.71,4.4-4.85
					c1.89-1.14,4.03-1.71,6.44-1.71c2.95,0,5.24,0.82,6.87,2.45c1.63,1.63,2.5,3.97,2.59,7.01c0,1.93-0.11,3.41-0.33,4.42h-16.36
					c0.06,3.14,0.79,5.67,2.19,7.58c1.39,1.92,3.38,2.88,5.95,2.88c1.27,0,2.59-0.23,3.97-0.69c1.38-0.46,2.45-1.01,3.21-1.64
					l0.9,2.09c-0.92,0.95-2.28,1.78-4.09,2.47c-1.81,0.7-3.65,1.05-5.52,1.05C274.72,439.02,271.8,437.77,269.78,435.27z
					 M283.41,422.76c0.1-0.67,0.14-1.35,0.14-2.05c-0.03-2.06-0.47-3.69-1.31-4.88c-0.84-1.19-2.16-1.78-3.97-1.78
					c-1.84,0-3.31,0.67-4.4,2c-1.09,1.33-1.72,3.57-1.88,6.71H283.41z"/>
				<path d="M290.97,436.17l3.57-0.29v-20.12l-3.42-0.86v-2.57l6.56-0.86h0.1l1.05,0.86v0.86l-0.14,3.71h0.14
					c0.32-0.54,0.89-1.24,1.71-2.09c0.82-0.86,1.89-1.64,3.19-2.35c1.3-0.71,2.71-1.07,4.23-1.07c0.63,0,1.16,0.08,1.57,0.24v5.33
					c-0.22-0.16-0.58-0.31-1.07-0.45c-0.49-0.14-1.04-0.21-1.64-0.21c-2.63,0-5.07,0.81-7.32,2.43v17.12l6.04,0.38v2.28h-14.55
					V436.17z"/>
				<path d="M316.38,434.69c0.32,0.48,0.99,0.9,2.02,1.29c1.03,0.38,2.12,0.57,3.26,0.57c1.81,0,3.14-0.35,4-1.05
					c0.86-0.7,1.28-1.66,1.28-2.9c0-0.86-0.27-1.6-0.81-2.23c-0.54-0.63-1.29-1.2-2.26-1.69c-0.97-0.49-2.35-1.09-4.16-1.78
					c-2.44-0.92-4.23-2.02-5.35-3.3c-1.13-1.29-1.69-2.97-1.69-5.07c0-1.39,0.42-2.62,1.26-3.66c0.84-1.05,2-1.86,3.47-2.45
					c1.47-0.59,3.12-0.88,4.92-0.88c1.46,0,2.73,0.11,3.83,0.33c1.09,0.22,1.97,0.44,2.64,0.67c0.67,0.22,1.11,0.36,1.33,0.43v5.9
					h-2.9l-0.95-3.52c-0.19-0.38-0.7-0.71-1.52-0.98c-0.82-0.27-1.74-0.4-2.76-0.4c-1.43,0-2.58,0.32-3.45,0.95
					c-0.87,0.63-1.31,1.49-1.31,2.57c0,0.95,0.23,1.74,0.69,2.35c0.46,0.62,1.04,1.12,1.74,1.5c0.7,0.38,1.65,0.82,2.85,1.33
					l0.95,0.38c1.78,0.7,3.22,1.36,4.33,2c1.11,0.63,2.04,1.47,2.78,2.5c0.74,1.03,1.12,2.29,1.12,3.78c0,2.35-0.91,4.22-2.73,5.61
					c-1.82,1.39-4.32,2.09-7.49,2.09c-1.55,0-3.18-0.21-4.88-0.64c-1.7-0.43-3.08-0.87-4.16-1.31v-6.09h3.09L316.38,434.69z"/>
				<path d="M338.16,415.77l-3.61-0.86v-2.52l7.37-0.9h0.1l1.09,0.86v23.45l3.8,0.38v2.33h-12.6v-2.33l3.85-0.43V415.77z
					 M337.78,406.49c-0.51-0.57-0.76-1.3-0.76-2.19c0-1.02,0.31-1.86,0.93-2.52c0.62-0.67,1.47-1,2.54-1c1.08,0,1.87,0.29,2.38,0.86
					c0.51,0.57,0.76,1.3,0.76,2.19c0,1.08-0.31,1.93-0.93,2.57c-0.62,0.63-1.48,0.95-2.59,0.95h-0.05
					C339.05,407.35,338.29,407.06,337.78,406.49z"/>
				<path d="M352.44,437.74c-0.89-0.82-1.33-2.23-1.33-4.23v-18.27h-3.42v-2.14c0.16-0.03,0.6-0.14,1.33-0.33
					c0.73-0.19,1.22-0.36,1.47-0.52c0.51-0.29,0.9-0.86,1.19-1.71c0.25-0.6,0.55-1.57,0.9-2.9c0.35-1.33,0.55-2.12,0.62-2.38h2.81
					l0.09,6.85h7.94v3.14h-7.94v14.6c0,1.81,0.06,3.08,0.17,3.81c0.11,0.73,0.35,1.2,0.71,1.43c0.36,0.22,0.99,0.33,1.88,0.33
					c0.86,0,1.8-0.11,2.83-0.33c1.03-0.22,1.83-0.46,2.4-0.71l0.71,2.14c-0.76,0.57-1.99,1.13-3.69,1.67
					c-1.7,0.54-3.24,0.81-4.64,0.81C354.68,438.97,353.33,438.56,352.44,437.74z"/>
				<path d="M369.2,435.27c-2.01-2.5-3.02-5.85-3.02-10.04c0-2.76,0.52-5.18,1.57-7.28c1.05-2.09,2.51-3.71,4.4-4.85
					c1.89-1.14,4.03-1.71,6.44-1.71c2.95,0,5.24,0.82,6.87,2.45c1.63,1.63,2.5,3.97,2.59,7.01c0,1.93-0.11,3.41-0.33,4.42h-16.36
					c0.06,3.14,0.79,5.67,2.19,7.58c1.39,1.92,3.38,2.88,5.95,2.88c1.27,0,2.59-0.23,3.97-0.69c1.38-0.46,2.45-1.01,3.21-1.64
					l0.9,2.09c-0.92,0.95-2.28,1.78-4.09,2.47c-1.81,0.7-3.65,1.05-5.52,1.05C374.14,439.02,371.21,437.77,369.2,435.27z
					 M382.83,422.76c0.09-0.67,0.14-1.35,0.14-2.05c-0.03-2.06-0.47-3.69-1.31-4.88c-0.84-1.19-2.16-1.78-3.97-1.78
					c-1.84,0-3.31,0.67-4.4,2c-1.09,1.33-1.72,3.57-1.88,6.71H382.83z M376.17,407.44"/>
				<path d="M406.18,437.6c-1.53-0.95-2.74-2.41-3.64-4.38c-0.9-1.96-1.35-4.39-1.35-7.28c0-2.69,0.53-5.15,1.6-7.37
					c1.07-2.22,2.6-3.97,4.6-5.26c2-1.29,4.35-1.93,7.07-1.93c1.56,0,2.97,0.17,4.26,0.52v-8.89l-4.67-0.57v-2.05l8.24-0.86h0.14
					l1.01,0.76v35.77h2.65v2.19c-0.98,0.22-1.82,0.4-2.54,0.52c-0.72,0.13-1.47,0.19-2.27,0.19c-0.79,0-1.36-0.14-1.69-0.43
					c-0.34-0.29-0.5-0.89-0.5-1.81v-1.52c-0.85,1.08-1.98,1.98-3.36,2.71c-1.39,0.73-2.89,1.09-4.51,1.09
					C409.38,439.02,407.7,438.55,406.18,437.6z M416.38,434.81c1.04-0.56,1.81-1.2,2.33-1.93v-17.41c-0.24-0.38-0.82-0.72-1.72-1.02
					c-0.9-0.3-1.85-0.45-2.86-0.45c-2.38,0-4.28,0.94-5.7,2.83c-1.42,1.89-2.13,4.8-2.13,8.73c0,3.42,0.62,5.96,1.88,7.61
					c1.25,1.65,2.87,2.47,4.85,2.47C414.23,435.65,415.34,435.37,416.38,434.81z"/>
				<path d="M430.57,435.27c-1.94-2.5-2.91-5.85-2.91-10.04c0-2.76,0.5-5.18,1.51-7.28s2.42-3.71,4.23-4.85
					c1.81-1.14,3.88-1.71,6.2-1.71c2.84,0,5.04,0.82,6.61,2.45c1.57,1.63,2.4,3.97,2.49,7.01c0,1.93-0.11,3.41-0.32,4.42h-15.74
					c0.06,3.14,0.76,5.67,2.1,7.58c1.34,1.92,3.25,2.88,5.72,2.88c1.22,0,2.49-0.23,3.82-0.69c1.33-0.46,2.36-1.01,3.09-1.64
					l0.87,2.09c-0.89,0.95-2.2,1.78-3.94,2.47c-1.74,0.7-3.51,1.05-5.31,1.05C435.32,439.02,432.51,437.77,430.57,435.27z
					 M443.68,422.76c0.09-0.67,0.14-1.35,0.14-2.05c-0.03-2.06-0.45-3.69-1.26-4.88c-0.81-1.19-2.08-1.78-3.82-1.78
					c-1.77,0-3.18,0.67-4.23,2c-1.05,1.33-1.66,3.57-1.81,6.71H443.68z"/>
				<g>
					<path d="M165.07,484.8c0.54,0.05,1.31,0.26,2.34,0.62c1.73,0.52,3.34,0.94,4.79,1.25l0,0c1.44,0.31,3.11,0.47,4.94,0.47
						c3.03,0,5.65-0.55,7.78-1.63c2.13-1.08,3.73-2.48,4.77-4.17c1.04-1.68,1.56-3.46,1.56-5.27c0-1.92-0.52-3.59-1.56-4.98
						c-1.04-1.39-2.29-2.53-3.74-3.4c-1.45-0.86-3.35-1.84-5.65-2.92c-2.49-1.15-4.32-2.06-5.45-2.72
						c-1.14-0.66-2.11-1.48-2.88-2.42c-0.77-0.95-1.17-2.14-1.17-3.55c0-1.93,0.65-3.43,1.93-4.45c1.27-1.02,3.17-1.53,5.63-1.53
						c1.32,0,2.56,0.16,3.68,0.47c1.13,0.31,1.88,0.66,2.25,1.01l0.02,0.02l0,0.03l1.05,6.34h3.09l0.31-8.6
						c-0.49-0.08-1.08-0.23-1.75-0.46c-1.59-0.42-3.03-0.75-4.28-0.99c-1.26-0.24-2.72-0.36-4.33-0.36c-2.6,0-4.92,0.44-6.87,1.3
						c-1.95,0.86-3.47,2.05-4.5,3.54c-1.03,1.49-1.56,3.2-1.56,5.09c0,2.09,0.54,3.91,1.61,5.4c1.07,1.5,2.36,2.71,3.82,3.6
						c1.46,0.9,3.21,1.79,5.19,2.66c2.18,0.93,3.94,1.75,5.21,2.45c1.27,0.7,2.3,1.55,3.07,2.53c0.77,0.99,1.17,2.18,1.17,3.55
						c0,2.11-0.72,3.78-2.14,4.97c-1.41,1.19-3.51,1.79-6.22,1.79c-1.64,0-3.16-0.22-4.54-0.66c-1.37-0.44-2.38-0.94-2.99-1.51
						l-0.02-0.02l0-0.03l-0.9-6.71h-3.25L165.07,484.8z"/>
				</g>
				<path d="M196.48,451.23l-4.09-0.52v-2.05l7.93-0.9h0.1l1.07,0.71v11.04l-0.19,4.04c1.04-0.92,2.46-1.79,4.28-2.62
					c1.82-0.82,3.65-1.24,5.5-1.24c2.04,0,3.63,0.38,4.77,1.14c1.13,0.76,1.93,1.93,2.38,3.5c0.45,1.57,0.68,3.69,0.68,6.35v13.27
					l3.41,0.43v2.33h-11.63v-2.33l3.16-0.43v-13.32c0-1.87-0.13-3.34-0.39-4.4c-0.26-1.06-0.75-1.85-1.46-2.38
					c-0.71-0.52-1.78-0.78-3.21-0.78c-1.17,0-2.42,0.29-3.75,0.86c-1.33,0.57-2.5,1.24-3.5,2v18.03l3.36,0.43v2.33h-11.33v-2.33
					l2.92-0.38V451.23z"/>
				<path d="M228.1,483.47c-2.06-2.5-3.09-5.85-3.09-10.04c0-2.76,0.54-5.18,1.61-7.28c1.07-2.09,2.57-3.71,4.5-4.85
					c1.93-1.14,4.13-1.71,6.59-1.71c3.02,0,5.36,0.82,7.03,2.45c1.67,1.63,2.55,3.97,2.65,7.01c0,1.93-0.11,3.41-0.34,4.42h-16.73
					c0.06,3.14,0.81,5.67,2.24,7.58c1.43,1.92,3.45,2.88,6.08,2.88c1.3,0,2.65-0.23,4.06-0.69c1.41-0.46,2.51-1.01,3.28-1.64
					l0.92,2.09c-0.94,0.95-2.33,1.78-4.18,2.47c-1.85,0.7-3.73,1.05-5.64,1.05C233.15,487.23,230.16,485.98,228.1,483.47z
					 M242.03,470.96c0.1-0.67,0.15-1.35,0.15-2.05c-0.03-2.06-0.48-3.69-1.34-4.88c-0.86-1.19-2.21-1.78-4.06-1.78
					c-1.88,0-3.38,0.67-4.5,2c-1.12,1.33-1.76,3.57-1.92,6.71H242.03z"/>
				<path d="M251.19,484.38l3.65-0.29v-20.12l-3.5-0.86v-2.57l6.71-0.86h0.1l1.07,0.86v0.86l-0.15,3.71h0.15
					c0.32-0.54,0.91-1.24,1.75-2.09c0.84-0.86,1.93-1.64,3.26-2.35c1.33-0.71,2.77-1.07,4.33-1.07c0.65,0,1.18,0.08,1.61,0.24v5.33
					c-0.23-0.16-0.59-0.31-1.09-0.45c-0.5-0.14-1.06-0.21-1.68-0.21c-2.69,0-5.19,0.81-7.49,2.43v17.12l6.18,0.38v2.28h-14.89
					V484.38z"/>
				<path d="M270.61,448.66l7.78-0.9h0.1l1.12,0.71v14.32c0.97-0.92,2.13-1.68,3.48-2.28c1.35-0.6,2.85-0.9,4.5-0.9
					c1.95,0,3.72,0.46,5.33,1.38c1.61,0.92,2.89,2.35,3.84,4.28c0.96,1.93,1.44,4.37,1.44,7.32c0,2.73-0.58,5.2-1.73,7.42
					c-1.15,2.22-2.8,3.98-4.94,5.28c-2.14,1.3-4.62,1.95-7.44,1.95c-2.24,0-4.28-0.21-6.13-0.64c-1.85-0.43-2.97-0.82-3.36-1.17
					v-34.25l-3.99-0.52V448.66z M282.16,463.81c-1.05,0.56-1.91,1.18-2.55,1.88v17.5c0.19,0.44,0.75,0.8,1.68,1.07
					c0.92,0.27,1.97,0.4,3.14,0.4c2.5,0,4.51-0.98,6.03-2.95c1.52-1.97,2.29-4.84,2.29-8.61c0-3.39-0.67-5.93-1.99-7.61
					c-1.33-1.68-3.05-2.52-5.16-2.52C284.36,462.97,283.21,463.25,282.16,463.81z"/>
				<path d="M301.42,484.38l3.65-0.29v-20.12l-3.5-0.86v-2.57l6.71-0.86h0.1l1.07,0.86v0.86l-0.15,3.71h0.15
					c0.32-0.54,0.91-1.24,1.75-2.09c0.84-0.86,1.93-1.64,3.26-2.35c1.33-0.71,2.77-1.07,4.33-1.07c0.65,0,1.18,0.08,1.61,0.24v5.33
					c-0.23-0.16-0.59-0.31-1.09-0.45c-0.5-0.14-1.06-0.21-1.68-0.21c-2.69,0-5.19,0.81-7.49,2.43v17.12l6.18,0.38v2.28h-14.89
					V484.38z"/>
				<path d="M324.82,466.02c1.2-2.09,2.78-3.69,4.74-4.78c1.96-1.09,4.06-1.64,6.3-1.64c4.09,0,7.16,1.27,9.22,3.81
					c2.06,2.54,3.09,5.87,3.09,9.99c0,2.89-0.6,5.37-1.8,7.47c-1.2,2.09-2.78,3.68-4.74,4.76c-1.96,1.08-4.06,1.62-6.3,1.62
					c-4.09,0-7.16-1.27-9.22-3.81c-2.06-2.54-3.09-5.87-3.09-9.99C323.02,470.58,323.62,468.11,324.82,466.02z M340.78,481.81
					c1.2-1.81,1.8-4.49,1.8-8.04c0-3.52-0.55-6.31-1.65-8.37c-1.1-2.06-2.87-3.09-5.3-3.09c-2.24,0-3.96,0.9-5.18,2.71
					c-1.22,1.81-1.82,4.49-1.82,8.04c0,3.52,0.57,6.31,1.7,8.37c1.13,2.06,2.9,3.09,5.3,3.09
					C337.86,484.52,339.58,483.61,340.78,481.81z"/>
				<path d="M354.2,466.02c1.2-2.09,2.78-3.69,4.74-4.78c1.96-1.09,4.06-1.64,6.3-1.64c4.09,0,7.16,1.27,9.22,3.81
					c2.06,2.54,3.09,5.87,3.09,9.99c0,2.89-0.6,5.37-1.8,7.47c-1.2,2.09-2.78,3.68-4.74,4.76c-1.96,1.08-4.06,1.62-6.3,1.62
					c-4.09,0-7.16-1.27-9.22-3.81c-2.06-2.54-3.09-5.87-3.09-9.99C352.4,470.58,353,468.11,354.2,466.02z M370.15,481.81
					c1.2-1.81,1.8-4.49,1.8-8.04c0-3.52-0.55-6.31-1.65-8.37c-1.1-2.06-2.87-3.09-5.3-3.09c-2.24,0-3.96,0.9-5.18,2.71
					c-1.22,1.81-1.82,4.49-1.82,8.04c0,3.52,0.57,6.31,1.7,8.37c1.13,2.06,2.9,3.09,5.3,3.09
					C367.23,484.52,368.95,483.61,370.15,481.81z"/>
				<path d="M383.74,451.23l-3.79-0.52v-2.05l7.73-0.9h0.05l1.07,0.71v23.26l-0.1,2.81l11.24-11.37l-3.65-0.67v-2.19h11.77v2.19
					l-3.84,0.67l-7.15,6.8l9.24,14.03l3.02,0.38v2.33H397.5v-2.33l3.06-0.43l-6.86-11.04l-5.01,4.85l0.1,2.42v3.76l3.45,0.43v2.33
					h-11.58v-2.33l3.06-0.43V451.23z"/>
				<path d="M413.21,483.47c-2.06-2.5-3.09-5.85-3.09-10.04c0-2.76,0.54-5.18,1.61-7.28c1.07-2.09,2.57-3.71,4.5-4.85
					c1.93-1.14,4.13-1.71,6.59-1.71c3.02,0,5.36,0.82,7.03,2.45c1.67,1.63,2.55,3.97,2.65,7.01c0,1.93-0.11,3.41-0.34,4.42h-16.73
					c0.06,3.14,0.81,5.67,2.24,7.58c1.43,1.92,3.45,2.88,6.08,2.88c1.3,0,2.65-0.23,4.06-0.69c1.41-0.46,2.51-1.01,3.28-1.64
					l0.92,2.09c-0.94,0.95-2.33,1.78-4.18,2.47c-1.85,0.7-3.73,1.05-5.64,1.05C418.26,487.23,415.27,485.98,413.21,483.47z
					 M427.15,470.96c0.1-0.67,0.15-1.35,0.15-2.05c-0.03-2.06-0.48-3.69-1.34-4.88c-0.86-1.19-2.21-1.78-4.06-1.78
					c-1.88,0-3.38,0.67-4.5,2c-1.12,1.33-1.76,3.57-1.92,6.71H427.15z"/>
				<polygon points="376,406.58 380.14,400.46 385.32,400.46 385.37,400.59 379.31,406.58 376.2,406.58 				"/>
			</g>
		</g>
		<g>
			<g>
				<g>
					<g>
						<rect x="162.91" y="228.35" class="st0" width="286.13" height="146.53"/>
					</g>
				</g>
			</g>
			<g>
				<path class="st1" d="M211.12,338.79c-5.8-6.55-8.7-16.71-8.7-30.48v-40.75c0-2.99-2.16-5.55-5.11-6.04l-3.78-0.64v-6.26h30.73
					v6.26l-3.34,0.68c-2.68,0.55-4.61,2.91-4.61,5.65v42.48c0,11.35,2.02,19.53,6.07,24.53c4.05,5.01,9.87,7.51,17.46,7.51
					c7.59,0,13.29-2.67,17.09-8.01c3.8-5.34,5.7-13.1,5.7-23.28v-42.97c0-2.89-2.03-5.39-4.87-5.98l-2.96-0.62v-6.26h26.48v6.26
					l-3.85,0.63c-3.05,0.5-5.29,3.14-5.29,6.23v42.08c0,13.02-3.09,22.74-9.26,29.16c-6.18,6.43-14.39,9.64-24.66,9.64
					C225.95,348.62,216.92,345.35,211.12,338.79z"/>
				<path class="st1" d="M373.31,348.18c-3.42-0.75-7.14-1.87-11.26-3c-2.63-0.72-5.63-1.5-5.63-1.5l1-22.65h8.01
					c0,0,0.18,13.77,2.13,16.27c1.01,1.3,3.73,2.53,6.95,3.57c3.21,1.04,6.74,1.56,10.58,1.56c6.34,0,11.16-1.42,14.46-4.26
					c3.3-2.84,4.94-6.76,4.94-11.77c0-3.25-0.9-6.05-2.69-8.39c-1.8-2.33-4.17-4.34-7.13-6.01c-2.96-1.67-7.03-3.63-12.2-5.88
					c-4.67-2.08-8.74-4.21-12.2-6.38c-3.46-2.17-6.47-5.07-9.01-8.7c-2.55-3.63-3.82-7.99-3.82-13.08c0-4.59,1.23-8.7,3.69-12.33
					c2.46-3.63,6.01-6.49,10.64-8.57c4.63-2.08,10.03-3.13,16.21-3.13c3.84,0,7.24,0.29,10.2,0.88c2.96,0.58,6.32,1.38,10.08,2.38
					c1.73,0.54,4.26,1.13,4.26,1.13l-0.75,21.03h-7.64c0,0,0.1-12.84-2.5-15.4c-0.89-0.88-2.57-1.63-5.19-2.38
					c-2.63-0.75-5.49-1.13-8.57-1.13c-5.76,0-10.12,1.21-13.08,3.63c-2.96,2.42-4.44,5.93-4.44,10.51c0,3.34,0.9,6.13,2.69,8.39
					c1.79,2.25,4.02,4.17,6.7,5.76c2.67,1.59,6.93,3.75,12.77,6.51c5.42,2.59,9.85,4.92,13.27,7.01c3.42,2.09,6.36,4.82,8.82,8.2
					c2.46,3.38,3.69,7.41,3.69,12.08c0,4.42-1.23,8.68-3.69,12.77c-2.46,4.09-6.22,7.45-11.26,10.08
					c-5.05,2.63-11.16,3.94-18.34,3.94C380.61,349.31,376.73,348.93,373.31,348.18z"/>
				<g>
					<path class="st1" d="M343.15,286.08c-2.62-4.34-6.26-7.75-10.93-10.23c-4.67-2.48-12.28-3.72-18.5-3.72h-18.91h-5.53v4.47
						c0,0,5.53-0.01,5.53,3.09c0,0-0.12,13.79-0.12,21.88c0,8.09,0.12,21.96,0.12,21.96c0,2.57-5.53,3.05-5.53,3.05v4.43h24.77
						c6.19,0,13.77-1.25,18.41-3.74c4.64-2.49,8.24-5.92,10.79-10.27c2.55-4.35,3.83-9.29,3.83-14.82V301
						C347.07,295.4,345.76,290.42,343.15,286.08z M336.79,302.08c0,4.67-0.97,8.85-2.91,12.53c-1.94,3.68-4.67,6.57-8.2,8.68
						c-3.53,2.11-9.28,3.16-13.99,3.16h-7.83v-49.76h7.57c4.73,0,10.51,1.05,14.06,3.14c3.55,2.1,6.32,4.98,8.31,8.65
						c1.99,3.67,2.98,7.87,2.98,12.61V302.08z"/>
				</g>
			</g>
		</g>
	</g>
	<g>
		<path class="st1" d="M343.15,286.08c-2.62-4.34-6.26-7.75-10.93-10.23c-4.67-2.48-12.28-3.72-18.5-3.72h-18.91h-5.53v4.47
			c0,0,5.53-0.01,5.53,3.09c0,0-0.12,13.79-0.12,21.88c0,8.09,0.12,21.96,0.12,21.96c0,2.57-5.53,3.05-5.53,3.05v4.43h24.77
			c6.19,0,13.76-1.25,18.41-3.74c4.64-2.49,8.24-5.92,10.79-10.27c2.55-4.35,3.83-9.29,3.83-14.82V301
			C347.07,295.4,345.76,290.42,343.15,286.08z M336.79,302.08c0,4.67-0.97,8.85-2.91,12.53c-1.94,3.68-4.67,6.57-8.2,8.68
			c-3.53,2.11-9.28,3.16-13.99,3.16h-7.83v-49.76h7.57c4.73,0,10.51,1.05,14.06,3.14c3.55,2.1,6.32,4.98,8.31,8.65
			c1.99,3.67,2.98,7.87,2.98,12.61V302.08z"/>
	</g>
	<g>
		<g>
			<rect x="104.02" y="169.47" class="st2" width="403.91" height="376.33"/>
		</g>
	</g>
</g>
</svg>
